<svg xmlns="http://www.w3.org/2000/svg" viewBox="0 0 1672 941" width="1672" height="941" font-family="Pretendard, 'Noto Sans KR', 'Malgun Gothic', 'Apple SD Gothic Neo', sans-serif">
<defs>
  <marker id="a-red" viewBox="0 0 10 10" refX="8" refY="5" markerWidth="7" markerHeight="7" orient="auto-start-reverse"><path d="M0 0 10 5 0 10z" fill="#d9482b"/></marker><marker id="a-green" viewBox="0 0 10 10" refX="8" refY="5" markerWidth="7" markerHeight="7" orient="auto-start-reverse"><path d="M0 0 10 5 0 10z" fill="#1f8a5b"/></marker><marker id="a-blue" viewBox="0 0 10 10" refX="8" refY="5" markerWidth="7" markerHeight="7" orient="auto-start-reverse"><path d="M0 0 10 5 0 10z" fill="#1f6fd1"/></marker><marker id="a-strap" viewBox="0 0 10 10" refX="8" refY="5" markerWidth="7" markerHeight="7" orient="auto-start-reverse"><path d="M0 0 10 5 0 10z" fill="#e4572e"/></marker><marker id="a-ink" viewBox="0 0 10 10" refX="8" refY="5" markerWidth="7" markerHeight="7" orient="auto-start-reverse"><path d="M0 0 10 5 0 10z" fill="#1d2a3a"/></marker>
</defs>
<rect width="1672" height="941" fill="#ffffff"/>
<rect x="30" y="30" width="620" height="880" fill="#fbfcfd" stroke="#c9d2dc" stroke-width="2" rx="16"/><text x="54" y="72" font-size="26" font-weight="800" fill="#1d2a3a" text-anchor="start">방향 (20ft 컨테이너, 실제 비율)</text><text x="70" y="130" font-size="20" font-weight="600" fill="#5f6b78" text-anchor="start">옆에서 본 모습</text><rect x="70" y="150" width="365.8" height="148.18" fill="#eef3fb" stroke="#2f5aa8" stroke-width="5" rx="0"/><text x="78" y="328.18" font-size="18" font-weight="600" fill="#5f6b78" text-anchor="start">앞벽</text><text x="427.8" y="328.18" font-size="18" font-weight="600" fill="#5f6b78" text-anchor="end">문</text><rect x="215.70000000000002" y="236.18" width="74.39999999999999" height="62" fill="#d9a066" stroke="#a8743a" stroke-width="3" rx="0"/><line x1="215.70000000000002" y1="236.18" x2="290.1" y2="298.18" stroke="#a8743a" stroke-width="2"/><line x1="290.1" y1="236.18" x2="215.70000000000002" y2="298.18" stroke="#a8743a" stroke-width="2"/><line x1="153.7" y1="184.1" x2="352.1" y2="184.1" stroke="#d9482b" stroke-width="5" marker-end="url(#a-red)" marker-start="url(#a-red)"/><text x="252.9" y="170.1" font-size="20" font-weight="600" fill="#d9482b" text-anchor="middle">종방향(앞뒤)</text><line x1="475.8" y1="170" x2="475.8" y2="288.18" stroke="#1f6fd1" stroke-width="5" marker-end="url(#a-blue)"/><text x="489.8" y="224.09" font-size="20" font-weight="600" fill="#1f6fd1" text-anchor="start">수직</text><text x="489.8" y="248.09" font-size="20" font-weight="600" fill="#1f6fd1" text-anchor="start">하방</text><text x="70" y="388.18" font-size="20" font-weight="600" fill="#5f6b78" text-anchor="start">위에서 본 모습</text><rect x="70" y="408.18" width="365.8" height="145.70000000000002" fill="#eef3fb" stroke="#2f5aa8" stroke-width="5" rx="0"/><rect x="215.70000000000002" y="450.03000000000003" width="74.39999999999999" height="62" fill="#d9a066" stroke="#a8743a" stroke-width="3" rx="0"/><line x1="215.70000000000002" y1="450.03000000000003" x2="290.1" y2="512.03" stroke="#a8743a" stroke-width="2"/><line x1="290.1" y1="450.03000000000003" x2="215.70000000000002" y2="512.03" stroke="#a8743a" stroke-width="2"/><line x1="475.8" y1="418.18" x2="475.8" y2="543.88" stroke="#1f8a5b" stroke-width="5" marker-end="url(#a-green)" marker-start="url(#a-green)"/><text x="489.8" y="477.03000000000003" font-size="20" font-weight="600" fill="#1f8a5b" text-anchor="start">횡방향</text><text x="489.8" y="501.03000000000003" font-size="20" font-weight="600" fill="#1f8a5b" text-anchor="start">(좌우)</text><text x="70" y="603.88" font-size="19" font-weight="500" fill="#5f6b78" text-anchor="start">종방향과 횡방향은 따로 계산합니다(§5.3).</text><text x="70" y="631.88" font-size="19" font-weight="500" fill="#5f6b78" text-anchor="start">수직 하방은 화물을 바닥에 누르는 최소 값입니다.</text><rect x="690" y="30" width="952" height="880" fill="#fbfcfd" stroke="#c9d2dc" stroke-width="2" rx="16"/><text x="714" y="72" font-size="26" font-weight="800" fill="#1d2a3a" text-anchor="start">가속도 계수 (g의 배수, CTU Code 5장 표)</text><line x1="840" y1="140" x2="840" y2="790" stroke="#c9d2dc" stroke-width="2"/><text x="840" y="132" font-size="16" font-weight="500" fill="#5f6b78" text-anchor="middle">0.0g</text><line x1="900" y1="140" x2="900" y2="790" stroke="#c9d2dc" stroke-width="1"/><text x="900" y="132" font-size="16" font-weight="500" fill="#5f6b78" text-anchor="middle">0.2g</text><line x1="960" y1="140" x2="960" y2="790" stroke="#c9d2dc" stroke-width="1"/><text x="960" y="132" font-size="16" font-weight="500" fill="#5f6b78" text-anchor="middle">0.4g</text><line x1="1020" y1="140" x2="1020" y2="790" stroke="#c9d2dc" stroke-width="1"/><text x="1020" y="132" font-size="16" font-weight="500" fill="#5f6b78" text-anchor="middle">0.6g</text><line x1="1080" y1="140" x2="1080" y2="790" stroke="#c9d2dc" stroke-width="1"/><text x="1080" y="132" font-size="16" font-weight="500" fill="#5f6b78" text-anchor="middle">0.8g</text><line x1="1140" y1="140" x2="1140" y2="790" stroke="#c9d2dc" stroke-width="1"/><text x="1140" y="132" font-size="16" font-weight="500" fill="#5f6b78" text-anchor="middle">1.0g</text><text x="820" y="212" font-size="24" font-weight="800" fill="#1d2a3a" text-anchor="end">도로</text><rect x="840" y="160" width="240" height="30" fill="#d9482b" rx="4"/><text x="1090" y="183" font-size="19" font-weight="700" fill="#d9482b" text-anchor="start">0.8</text><rect x="840" y="200" width="150" height="30" fill="#1f8a5b" rx="4"/><text x="1000" y="223" font-size="19" font-weight="700" fill="#1f8a5b" text-anchor="start">0.5</text><rect x="840" y="240" width="300" height="30" fill="#1f6fd1" rx="4"/><text x="1150" y="263" font-size="19" font-weight="700" fill="#1f6fd1" text-anchor="start">1.0</text><text x="820" y="372" font-size="24" font-weight="800" fill="#1d2a3a" text-anchor="end">해상 A</text><rect x="840" y="320" width="90" height="30" fill="#d9482b" rx="4"/><text x="940" y="343" font-size="19" font-weight="700" fill="#d9482b" text-anchor="start">0.3</text><rect x="840" y="360" width="150" height="30" fill="#1f8a5b" rx="4"/><text x="1000" y="383" font-size="19" font-weight="700" fill="#1f8a5b" text-anchor="start">0.5</text><rect x="840" y="400" width="150" height="30" fill="#1f6fd1" rx="4"/><text x="1000" y="423" font-size="19" font-weight="700" fill="#1f6fd1" text-anchor="start">0.5</text><text x="820" y="532" font-size="24" font-weight="800" fill="#1d2a3a" text-anchor="end">해상 B</text><rect x="840" y="480" width="90" height="30" fill="#d9482b" rx="4"/><text x="940" y="503" font-size="19" font-weight="700" fill="#d9482b" text-anchor="start">0.3</text><rect x="840" y="520" width="210" height="30" fill="#1f8a5b" rx="4"/><text x="1060" y="543" font-size="19" font-weight="700" fill="#1f8a5b" text-anchor="start">0.7</text><rect x="840" y="560" width="90" height="30" fill="#1f6fd1" rx="4"/><text x="940" y="583" font-size="19" font-weight="700" fill="#1f6fd1" text-anchor="start">0.3</text><text x="820" y="692" font-size="24" font-weight="800" fill="#1d2a3a" text-anchor="end">해상 C</text><rect x="840" y="640" width="120" height="30" fill="#d9482b" rx="4"/><text x="970" y="663" font-size="19" font-weight="700" fill="#d9482b" text-anchor="start">0.4</text><rect x="840" y="680" width="240" height="30" fill="#1f8a5b" rx="4"/><text x="1090" y="703" font-size="19" font-weight="700" fill="#1f8a5b" text-anchor="start">0.8</text><rect x="840" y="720" width="60" height="30" fill="#1f6fd1" rx="4"/><text x="910" y="743" font-size="19" font-weight="700" fill="#1f6fd1" text-anchor="start">0.2</text><rect x="1260" y="170" width="22" height="22" rx="3" fill="#d9482b"/><text x="1292" y="188" font-size="19" font-weight="600" fill="#1d2a3a" text-anchor="start">종방향(앞)</text><rect x="1260" y="206" width="22" height="22" rx="3" fill="#1f8a5b"/><text x="1292" y="224" font-size="19" font-weight="600" fill="#1d2a3a" text-anchor="start">횡방향</text><rect x="1260" y="242" width="22" height="22" rx="3" fill="#1f6fd1"/><text x="1292" y="260" font-size="19" font-weight="600" fill="#1d2a3a" text-anchor="start">수직 하방*</text><text x="720" y="860" font-size="17" font-weight="500" fill="#5f6b78" text-anchor="start">* 종방향을 고정할 때 함께 쓰는 수직 하방 값. 횡방향 고정 때는 모두 1.0g입니다.</text><text x="720" y="888" font-size="17" font-weight="500" fill="#5f6b78" text-anchor="start">해상은 종방향 앞뒤가 같은 값이고, 도로의 뒤쪽은 0.5g입니다.</text>
</svg>
